<svg xmlns="http://www.w3.org/2000/svg" width="1440" height="1272" viewBox="0 0 1440 1272">
<rect width="1440" height="1272" fill="#FFFFFF"/>
<rect x="0" y="0" width="1440" height="92" rx="0" fill="#F7F8F9"/>
<text x="60" y="40" font-family="DejaVu Sans, Arial, sans-serif" font-size="21" font-weight="bold" fill="#33383D" text-anchor="start" letter-spacing="0.6">02 — Agenda do dia</text>
<text x="60" y="65" font-family="DejaVu Sans, Arial, sans-serif" font-size="13" font-weight="normal" fill="#6B7278" text-anchor="start" letter-spacing="0">Tela principal: régua do dia, serviços e agendamentos pendentes (RF08, RF11)</text>
<text x="1380" y="40" font-family="DejaVu Sans, Arial, sans-serif" font-size="12" font-weight="bold" fill="#6B7278" text-anchor="end" letter-spacing="1">WIREFRAME · BARBERSHOP WEB</text>
<text x="1380" y="65" font-family="DejaVu Sans, Arial, sans-serif" font-size="11.5" font-weight="normal" fill="#6B7278" text-anchor="end" letter-spacing="0">Baixa fidelidade · 1440px</text>
<line x1="0" y1="92" x2="1440" y2="92" stroke="#8E959C" stroke-width="2"/>
<rect x="0" y="92" width="230" height="1180" rx="0" fill="#EDEFF1"/>
<line x1="230" y1="92" x2="230" y2="1272" stroke="#8E959C" stroke-width="1.5"/>
<rect x="24" y="118" width="44" height="44" rx="8" fill="#E3E6E8" stroke="#8E959C" stroke-width="1.5"/>
<text x="46" y="146" font-family="DejaVu Sans, Arial, sans-serif" font-size="10" font-weight="bold" fill="#6B7278" text-anchor="middle" letter-spacing="0.5">LOGO</text>
<text x="82" y="138" font-family="DejaVu Sans, Arial, sans-serif" font-size="15" font-weight="bold" fill="#33383D" text-anchor="start" letter-spacing="0">Barbershop</text>
<text x="82" y="155" font-family="DejaVu Sans, Arial, sans-serif" font-size="11" font-weight="normal" fill="#6B7278" text-anchor="start" letter-spacing="0">Barbearia do Lucas</text>
<rect x="14" y="198" width="202" height="40" rx="8" fill="#FFFFFF" stroke="#8E959C" stroke-width="1.4"/>
<rect x="14" y="198" width="4" height="40" rx="2" fill="#33383D"/>
<rect x="28" y="210" width="16" height="16" rx="3" fill="#E3E6E8" stroke="#8E959C" stroke-width="1.2"/>
<text x="56" y="224" font-family="DejaVu Sans, Arial, sans-serif" font-size="13.5" font-weight="bold" fill="#33383D" text-anchor="start" letter-spacing="0">Agenda</text>
<rect x="28" y="256" width="16" height="16" rx="3" fill="#E3E6E8" stroke="#8E959C" stroke-width="1.2"/>
<text x="56" y="270" font-family="DejaVu Sans, Arial, sans-serif" font-size="13.5" font-weight="normal" fill="#6B7278" text-anchor="start" letter-spacing="0">Novo agendamento</text>
<rect x="28" y="302" width="16" height="16" rx="3" fill="#E3E6E8" stroke="#8E959C" stroke-width="1.2"/>
<text x="56" y="316" font-family="DejaVu Sans, Arial, sans-serif" font-size="13.5" font-weight="normal" fill="#6B7278" text-anchor="start" letter-spacing="0">Minha barbearia</text>
<rect x="28" y="348" width="16" height="16" rx="3" fill="#E3E6E8" stroke="#8E959C" stroke-width="1.2"/>
<text x="56" y="362" font-family="DejaVu Sans, Arial, sans-serif" font-size="13.5" font-weight="normal" fill="#6B7278" text-anchor="start" letter-spacing="0">Histórico</text>
<rect x="28" y="394" width="16" height="16" rx="3" fill="#E3E6E8" stroke="#8E959C" stroke-width="1.2"/>
<text x="56" y="408" font-family="DejaVu Sans, Arial, sans-serif" font-size="13.5" font-weight="normal" fill="#6B7278" text-anchor="start" letter-spacing="0">Relatórios</text>
<line x1="14" y1="436" x2="216" y2="436" stroke="#8E959C" stroke-width="1"/>
<text x="28" y="462" font-family="DejaVu Sans, Arial, sans-serif" font-size="13" font-weight="normal" fill="#6B7278" text-anchor="start" letter-spacing="0">Sair</text>
<text x="28" y="1248" font-family="DejaVu Sans, Arial, sans-serif" font-size="12" font-weight="normal" fill="#7E8790" text-anchor="start" letter-spacing="0">▸ Menu recolhível em telas pequenas</text>
<rect x="230" y="92" width="1210" height="78" rx="0" fill="#FFFFFF"/>
<line x1="230" y1="170" x2="1440" y2="170" stroke="#8E959C" stroke-width="1.5"/>
<text x="266" y="140" font-family="DejaVu Sans, Arial, sans-serif" font-size="19" font-weight="bold" fill="#33383D" text-anchor="start" letter-spacing="0">Agenda do dia</text>
<rect x="1210" y="112" width="130" height="38" rx="19" fill="#F4F5F6" stroke="#8E959C" stroke-width="1.2"/>
<text x="1275" y="136" font-family="DejaVu Sans, Arial, sans-serif" font-size="12.5" font-weight="normal" fill="#6B7278" text-anchor="middle" letter-spacing="0">13/08/2026</text>
<circle cx="1384" cy="131" r="19" fill="#E3E6E8" stroke="#8E959C" stroke-width="1.4"/>
<text x="1384" y="136" font-family="DejaVu Sans, Arial, sans-serif" font-size="12" font-weight="bold" fill="#6B7278" text-anchor="middle" letter-spacing="0">LR</text>
<rect x="266" y="204" width="1138" height="150" rx="4" fill="#FFFFFF" stroke="#8E959C" stroke-width="1.5"/>
<text x="288" y="238" font-family="DejaVu Sans, Arial, sans-serif" font-size="13" font-weight="bold" fill="#33383D" text-anchor="start" letter-spacing="1">RÉGUA DO DIA</text>
<text x="1382" y="238" font-family="DejaVu Sans, Arial, sans-serif" font-size="12" font-weight="normal" fill="#6B7278" text-anchor="end" letter-spacing="0">agora · 14:20</text>
<rect x="288" y="282" width="1094" height="10" rx="5" fill="#C6CBD0"/>
<rect x="342.7" y="266" width="54" height="42" rx="6" fill="#E3E6E8" stroke="#8E959C" stroke-width="1.3"/>
<rect x="528.68" y="266" width="54" height="42" rx="6" fill="#E3E6E8" stroke="#8E959C" stroke-width="1.3"/>
<rect x="703.72" y="266" width="54" height="42" rx="6" fill="#E3E6E8" stroke="#8E959C" stroke-width="1.3"/>
<rect x="856.88" y="266" width="54" height="42" rx="6" fill="#E3E6E8" stroke="#8E959C" stroke-width="1.3"/>
<rect x="1064.74" y="266" width="54" height="42" rx="6" fill="#E3E6E8" stroke="#8E959C" stroke-width="1.3"/>
<rect x="1250.72" y="266" width="54" height="42" rx="6" fill="#E3E6E8" stroke="#8E959C" stroke-width="1.3"/>
<line x1="791.24" y1="256" x2="791.24" y2="322" stroke="#33383D" stroke-width="2.5"/>
<circle cx="791.24" cy="256" r="6" fill="#33383D"/>
<text x="288" y="338" font-family="DejaVu Sans, Arial, sans-serif" font-size="11" font-weight="normal" fill="#6B7278" text-anchor="middle" letter-spacing="0">08h</text>
<text x="470.333" y="338" font-family="DejaVu Sans, Arial, sans-serif" font-size="11" font-weight="normal" fill="#6B7278" text-anchor="middle" letter-spacing="0">10h</text>
<text x="652.667" y="338" font-family="DejaVu Sans, Arial, sans-serif" font-size="11" font-weight="normal" fill="#6B7278" text-anchor="middle" letter-spacing="0">12h</text>
<text x="835" y="338" font-family="DejaVu Sans, Arial, sans-serif" font-size="11" font-weight="normal" fill="#6B7278" text-anchor="middle" letter-spacing="0">14h</text>
<text x="1017.33" y="338" font-family="DejaVu Sans, Arial, sans-serif" font-size="11" font-weight="normal" fill="#6B7278" text-anchor="middle" letter-spacing="0">16h</text>
<text x="1199.67" y="338" font-family="DejaVu Sans, Arial, sans-serif" font-size="11" font-weight="normal" fill="#6B7278" text-anchor="middle" letter-spacing="0">18h</text>
<text x="1382" y="338" font-family="DejaVu Sans, Arial, sans-serif" font-size="11" font-weight="normal" fill="#6B7278" text-anchor="middle" letter-spacing="0">20h</text>
<text x="266" y="378" font-family="DejaVu Sans, Arial, sans-serif" font-size="12" font-weight="normal" fill="#7E8790" text-anchor="start" letter-spacing="0">▸ Elemento-assinatura: posição de cada atendimento no dia e marcador da hora atual</text>
<rect x="266" y="400" width="269.5" height="92" rx="4" fill="#FFFFFF" stroke="#8E959C" stroke-width="1.5"/>
<text x="284" y="432" font-family="DejaVu Sans, Arial, sans-serif" font-size="11.5" font-weight="bold" fill="#6B7278" text-anchor="start" letter-spacing="0.8">Hoje</text>
<text x="284" y="466" font-family="DejaVu Sans, Arial, sans-serif" font-size="17" font-weight="bold" fill="#33383D" text-anchor="start" letter-spacing="0">8 atendimentos</text>
<rect x="555.5" y="400" width="269.5" height="92" rx="4" fill="#FFFFFF" stroke="#8E959C" stroke-width="1.5"/>
<text x="573.5" y="432" font-family="DejaVu Sans, Arial, sans-serif" font-size="11.5" font-weight="bold" fill="#6B7278" text-anchor="start" letter-spacing="0.8">Atrasados</text>
<text x="573.5" y="466" font-family="DejaVu Sans, Arial, sans-serif" font-size="17" font-weight="bold" fill="#33383D" text-anchor="start" letter-spacing="0">1</text>
<rect x="845" y="400" width="269.5" height="92" rx="4" fill="#FFFFFF" stroke="#8E959C" stroke-width="1.5"/>
<text x="863" y="432" font-family="DejaVu Sans, Arial, sans-serif" font-size="11.5" font-weight="bold" fill="#6B7278" text-anchor="start" letter-spacing="0.8">Em atendimento</text>
<text x="863" y="466" font-family="DejaVu Sans, Arial, sans-serif" font-size="17" font-weight="bold" fill="#33383D" text-anchor="start" letter-spacing="0">1</text>
<rect x="1134.5" y="400" width="269.5" height="92" rx="4" fill="#FFFFFF" stroke="#8E959C" stroke-width="1.5"/>
<text x="1152.5" y="432" font-family="DejaVu Sans, Arial, sans-serif" font-size="11.5" font-weight="bold" fill="#6B7278" text-anchor="start" letter-spacing="0.8">Faturamento previsto</text>
<text x="1152.5" y="466" font-family="DejaVu Sans, Arial, sans-serif" font-size="17" font-weight="bold" fill="#33383D" text-anchor="start" letter-spacing="0">R$ 000,00</text>
<text x="266" y="536" font-family="DejaVu Sans, Arial, sans-serif" font-size="16" font-weight="bold" fill="#33383D" text-anchor="start" letter-spacing="0">Serviços oferecidos</text>
<rect x="266" y="556" width="269.5" height="150" rx="4" fill="#FFFFFF" stroke="#8E959C" stroke-width="1.5"/>
<rect x="280" y="570" width="241.5" height="74" rx="4" fill="#E3E6E8" stroke="#8E959C" stroke-width="1.5"/>
<path d="M280 570 L521.5 644 M521.5 570 L280 644" stroke="#8E959C" stroke-width="1.2" opacity="0.7"/>
<text x="400.75" y="611" font-family="DejaVu Sans, Arial, sans-serif" font-size="12" font-weight="normal" fill="#6B7278" text-anchor="middle" letter-spacing="0">Foto</text>
<rect x="280" y="658" width="148.225" height="10" rx="5" fill="#C6CBD0"/>
<rect x="280" y="678" width="86.24" height="8" rx="4" fill="#C6CBD0"/>
<rect x="555.5" y="556" width="269.5" height="150" rx="4" fill="#FFFFFF" stroke="#8E959C" stroke-width="1.5"/>
<rect x="569.5" y="570" width="241.5" height="74" rx="4" fill="#E3E6E8" stroke="#8E959C" stroke-width="1.5"/>
<path d="M569.5 570 L811 644 M811 570 L569.5 644" stroke="#8E959C" stroke-width="1.2" opacity="0.7"/>
<text x="690.25" y="611" font-family="DejaVu Sans, Arial, sans-serif" font-size="12" font-weight="normal" fill="#6B7278" text-anchor="middle" letter-spacing="0">Foto</text>
<rect x="569.5" y="658" width="148.225" height="10" rx="5" fill="#C6CBD0"/>
<rect x="569.5" y="678" width="86.24" height="8" rx="4" fill="#C6CBD0"/>
<rect x="845" y="556" width="269.5" height="150" rx="4" fill="#FFFFFF" stroke="#8E959C" stroke-width="1.5"/>
<rect x="859" y="570" width="241.5" height="74" rx="4" fill="#E3E6E8" stroke="#8E959C" stroke-width="1.5"/>
<path d="M859 570 L1100.5 644 M1100.5 570 L859 644" stroke="#8E959C" stroke-width="1.2" opacity="0.7"/>
<text x="979.75" y="611" font-family="DejaVu Sans, Arial, sans-serif" font-size="12" font-weight="normal" fill="#6B7278" text-anchor="middle" letter-spacing="0">Foto</text>
<rect x="859" y="658" width="148.225" height="10" rx="5" fill="#C6CBD0"/>
<rect x="859" y="678" width="86.24" height="8" rx="4" fill="#C6CBD0"/>
<rect x="1134.5" y="556" width="269.5" height="150" rx="4" fill="#FFFFFF" stroke="#8E959C" stroke-width="1.5"/>
<rect x="1148.5" y="570" width="241.5" height="74" rx="4" fill="#E3E6E8" stroke="#8E959C" stroke-width="1.5"/>
<path d="M1148.5 570 L1390 644 M1390 570 L1148.5 644" stroke="#8E959C" stroke-width="1.2" opacity="0.7"/>
<text x="1269.25" y="611" font-family="DejaVu Sans, Arial, sans-serif" font-size="12" font-weight="normal" fill="#6B7278" text-anchor="middle" letter-spacing="0">Foto</text>
<rect x="1148.5" y="658" width="148.225" height="10" rx="5" fill="#C6CBD0"/>
<rect x="1148.5" y="678" width="86.24" height="8" rx="4" fill="#C6CBD0"/>
<text x="266" y="728" font-family="DejaVu Sans, Arial, sans-serif" font-size="12" font-weight="normal" fill="#7E8790" text-anchor="start" letter-spacing="0">▸ Grid de serviços com foto, nome e preço (RF03)</text>
<text x="266" y="788" font-family="DejaVu Sans, Arial, sans-serif" font-size="16" font-weight="bold" fill="#33383D">Agendamentos pendentes</text>
<rect x="1214" y="764" width="190" height="40" rx="20" fill="#DCDFE2" stroke="#8E959C" stroke-width="1.6"/>
<text x="1309" y="789" font-family="DejaVu Sans, Arial, sans-serif" font-size="13.5" font-weight="bold" fill="#33383D" text-anchor="middle" letter-spacing="0">+ Novo agendamento</text>
<rect x="266" y="808" width="1138" height="300" rx="4" fill="#FFFFFF" stroke="#8E959C" stroke-width="1.5"/>
<rect x="266" y="808" width="1138" height="44" rx="0" fill="#F4F5F6" stroke="#8E959C" stroke-width="1.5"/>
<text x="329.52" y="836" font-family="DejaVu Sans, Arial, sans-serif" font-size="12" font-weight="bold" fill="#6B7278" text-anchor="start" letter-spacing="0.5">Hora</text>
<text x="443.32" y="836" font-family="DejaVu Sans, Arial, sans-serif" font-size="12" font-weight="bold" fill="#6B7278" text-anchor="start" letter-spacing="0.5">Cliente</text>
<text x="670.92" y="836" font-family="DejaVu Sans, Arial, sans-serif" font-size="12" font-weight="bold" fill="#6B7278" text-anchor="start" letter-spacing="0.5">Serviço</text>
<text x="875.76" y="836" font-family="DejaVu Sans, Arial, sans-serif" font-size="12" font-weight="bold" fill="#6B7278" text-anchor="start" letter-spacing="0.5">Barbeiro</text>
<text x="1057.84" y="836" font-family="DejaVu Sans, Arial, sans-serif" font-size="12" font-weight="bold" fill="#6B7278" text-anchor="start" letter-spacing="0.5">Status</text>
<text x="1251.3" y="836" font-family="DejaVu Sans, Arial, sans-serif" font-size="12" font-weight="bold" fill="#6B7278" text-anchor="start" letter-spacing="0.5">Ações</text>
<line x1="266" y1="852" x2="1404" y2="852" stroke="#E8EBED" stroke-width="1"/>
<rect x="278" y="861" width="6" height="34" rx="3" fill="#C6CBD0"/>
<rect x="329.52" y="873" width="46" height="10" rx="5" fill="#C6CBD0"/>
<rect x="443.32" y="873" width="159.32" height="9" rx="4.5" fill="#C6CBD0"/>
<rect x="670.92" y="873" width="136.56" height="9" rx="4.5" fill="#C6CBD0"/>
<rect x="875.76" y="873" width="113.8" height="9" rx="4.5" fill="#C6CBD0"/>
<rect x="1057.84" y="865" width="92" height="26" rx="13" fill="#F4F5F6" stroke="#8E959C" stroke-width="1.2"/>
<rect x="1251.3" y="865" width="28" height="26" rx="6" fill="#FFFFFF" stroke="#8E959C" stroke-width="1.2"/>
<rect x="1285.3" y="865" width="28" height="26" rx="6" fill="#FFFFFF" stroke="#8E959C" stroke-width="1.2"/>
<rect x="1319.3" y="865" width="28" height="26" rx="6" fill="#FFFFFF" stroke="#8E959C" stroke-width="1.2"/>
<line x1="266" y1="903" x2="1404" y2="903" stroke="#E8EBED" stroke-width="1"/>
<rect x="278" y="912" width="6" height="34" rx="3" fill="#6B7278"/>
<rect x="329.52" y="924" width="46" height="10" rx="5" fill="#C6CBD0"/>
<rect x="443.32" y="924" width="159.32" height="9" rx="4.5" fill="#C6CBD0"/>
<rect x="670.92" y="924" width="136.56" height="9" rx="4.5" fill="#C6CBD0"/>
<rect x="875.76" y="924" width="113.8" height="9" rx="4.5" fill="#C6CBD0"/>
<rect x="1057.84" y="916" width="92" height="26" rx="13" fill="#F4F5F6" stroke="#8E959C" stroke-width="1.2"/>
<rect x="1251.3" y="916" width="28" height="26" rx="6" fill="#FFFFFF" stroke="#8E959C" stroke-width="1.2"/>
<rect x="1285.3" y="916" width="28" height="26" rx="6" fill="#FFFFFF" stroke="#8E959C" stroke-width="1.2"/>
<rect x="1319.3" y="916" width="28" height="26" rx="6" fill="#FFFFFF" stroke="#8E959C" stroke-width="1.2"/>
<line x1="266" y1="954" x2="1404" y2="954" stroke="#E8EBED" stroke-width="1"/>
<rect x="278" y="963" width="6" height="34" rx="3" fill="#C6CBD0"/>
<rect x="329.52" y="975" width="46" height="10" rx="5" fill="#C6CBD0"/>
<rect x="443.32" y="975" width="159.32" height="9" rx="4.5" fill="#C6CBD0"/>
<rect x="670.92" y="975" width="136.56" height="9" rx="4.5" fill="#C6CBD0"/>
<rect x="875.76" y="975" width="113.8" height="9" rx="4.5" fill="#C6CBD0"/>
<rect x="1057.84" y="967" width="92" height="26" rx="13" fill="#F4F5F6" stroke="#8E959C" stroke-width="1.2"/>
<rect x="1251.3" y="967" width="28" height="26" rx="6" fill="#FFFFFF" stroke="#8E959C" stroke-width="1.2"/>
<rect x="1285.3" y="967" width="28" height="26" rx="6" fill="#FFFFFF" stroke="#8E959C" stroke-width="1.2"/>
<rect x="1319.3" y="967" width="28" height="26" rx="6" fill="#FFFFFF" stroke="#8E959C" stroke-width="1.2"/>
<line x1="266" y1="1005" x2="1404" y2="1005" stroke="#E8EBED" stroke-width="1"/>
<rect x="278" y="1014" width="6" height="34" rx="3" fill="#6B7278"/>
<rect x="329.52" y="1026" width="46" height="10" rx="5" fill="#C6CBD0"/>
<rect x="443.32" y="1026" width="159.32" height="9" rx="4.5" fill="#C6CBD0"/>
<rect x="670.92" y="1026" width="136.56" height="9" rx="4.5" fill="#C6CBD0"/>
<rect x="875.76" y="1026" width="113.8" height="9" rx="4.5" fill="#C6CBD0"/>
<rect x="1057.84" y="1018" width="92" height="26" rx="13" fill="#F4F5F6" stroke="#8E959C" stroke-width="1.2"/>
<rect x="1251.3" y="1018" width="28" height="26" rx="6" fill="#FFFFFF" stroke="#8E959C" stroke-width="1.2"/>
<rect x="1285.3" y="1018" width="28" height="26" rx="6" fill="#FFFFFF" stroke="#8E959C" stroke-width="1.2"/>
<rect x="1319.3" y="1018" width="28" height="26" rx="6" fill="#FFFFFF" stroke="#8E959C" stroke-width="1.2"/>
<line x1="266" y1="1056" x2="1404" y2="1056" stroke="#E8EBED" stroke-width="1"/>
<rect x="278" y="1065" width="6" height="34" rx="3" fill="#C6CBD0"/>
<rect x="329.52" y="1077" width="46" height="10" rx="5" fill="#C6CBD0"/>
<rect x="443.32" y="1077" width="159.32" height="9" rx="4.5" fill="#C6CBD0"/>
<rect x="670.92" y="1077" width="136.56" height="9" rx="4.5" fill="#C6CBD0"/>
<rect x="875.76" y="1077" width="113.8" height="9" rx="4.5" fill="#C6CBD0"/>
<rect x="1057.84" y="1069" width="92" height="26" rx="13" fill="#F4F5F6" stroke="#8E959C" stroke-width="1.2"/>
<rect x="1251.3" y="1069" width="28" height="26" rx="6" fill="#FFFFFF" stroke="#8E959C" stroke-width="1.2"/>
<rect x="1285.3" y="1069" width="28" height="26" rx="6" fill="#FFFFFF" stroke="#8E959C" stroke-width="1.2"/>
<rect x="1319.3" y="1069" width="28" height="26" rx="6" fill="#FFFFFF" stroke="#8E959C" stroke-width="1.2"/>
<text x="266" y="1132" font-family="DejaVu Sans, Arial, sans-serif" font-size="12" font-weight="normal" fill="#7E8790" text-anchor="start" letter-spacing="0">▸ Faixa colorida à esquerda indica a classificação do agendamento (RF11)</text>
<text x="266" y="1154" font-family="DejaVu Sans, Arial, sans-serif" font-size="12" font-weight="normal" fill="#7E8790" text-anchor="start" letter-spacing="0">▸ Ações por linha: iniciar, concluir e editar (RF06, RF07)</text>
</svg>