<svg xmlns="http://www.w3.org/2000/svg" width="1440" height="1032" viewBox="0 0 1440 1032">
<rect width="1440" height="1032" fill="#FFFFFF"/>
<rect x="0" y="0" width="1440" height="92" rx="0" fill="#F7F8F9"/>
<text x="60" y="40" font-family="DejaVu Sans, Arial, sans-serif" font-size="21" font-weight="bold" fill="#33383D" text-anchor="start" letter-spacing="0.6">04 - Minha barbearia</text>
<text x="60" y="65" font-family="DejaVu Sans, Arial, sans-serif" font-size="13" font-weight="normal" fill="#6B7278" text-anchor="start" letter-spacing="0">Dados da barbearia, serviços e barbeiros (RF03, RF04)</text>
<text x="1380" y="40" font-family="DejaVu Sans, Arial, sans-serif" font-size="12" font-weight="bold" fill="#6B7278" text-anchor="end" letter-spacing="1">WIREFRAME · BARBERSHOP WEB</text>
<text x="1380" y="65" font-family="DejaVu Sans, Arial, sans-serif" font-size="11.5" font-weight="normal" fill="#6B7278" text-anchor="end" letter-spacing="0">Baixa fidelidade · 1440px</text>
<line x1="0" y1="92" x2="1440" y2="92" stroke="#8E959C" stroke-width="2"/>
<rect x="0" y="92" width="230" height="940" rx="0" fill="#EDEFF1"/>
<line x1="230" y1="92" x2="230" y2="1032" stroke="#8E959C" stroke-width="1.5"/>
<rect x="24" y="118" width="44" height="44" rx="8" fill="#E3E6E8" stroke="#8E959C" stroke-width="1.5"/>
<text x="46" y="146" font-family="DejaVu Sans, Arial, sans-serif" font-size="10" font-weight="bold" fill="#6B7278" text-anchor="middle" letter-spacing="0.5">LOGO</text>
<text x="82" y="138" font-family="DejaVu Sans, Arial, sans-serif" font-size="15" font-weight="bold" fill="#33383D" text-anchor="start" letter-spacing="0">Barbershop</text>
<text x="82" y="155" font-family="DejaVu Sans, Arial, sans-serif" font-size="11" font-weight="normal" fill="#6B7278" text-anchor="start" letter-spacing="0">Barbearia do Lucas</text>
<rect x="28" y="210" width="16" height="16" rx="3" fill="#E3E6E8" stroke="#8E959C" stroke-width="1.2"/>
<text x="56" y="224" font-family="DejaVu Sans, Arial, sans-serif" font-size="13.5" font-weight="normal" fill="#6B7278" text-anchor="start" letter-spacing="0">Agenda</text>
<rect x="28" y="256" width="16" height="16" rx="3" fill="#E3E6E8" stroke="#8E959C" stroke-width="1.2"/>
<text x="56" y="270" font-family="DejaVu Sans, Arial, sans-serif" font-size="13.5" font-weight="normal" fill="#6B7278" text-anchor="start" letter-spacing="0">Novo agendamento</text>
<rect x="14" y="290" width="202" height="40" rx="8" fill="#FFFFFF" stroke="#8E959C" stroke-width="1.4"/>
<rect x="14" y="290" width="4" height="40" rx="2" fill="#33383D"/>
<rect x="28" y="302" width="16" height="16" rx="3" fill="#E3E6E8" stroke="#8E959C" stroke-width="1.2"/>
<text x="56" y="316" font-family="DejaVu Sans, Arial, sans-serif" font-size="13.5" font-weight="bold" fill="#33383D" text-anchor="start" letter-spacing="0">Minha barbearia</text>
<rect x="28" y="348" width="16" height="16" rx="3" fill="#E3E6E8" stroke="#8E959C" stroke-width="1.2"/>
<text x="56" y="362" font-family="DejaVu Sans, Arial, sans-serif" font-size="13.5" font-weight="normal" fill="#6B7278" text-anchor="start" letter-spacing="0">Histórico</text>
<rect x="28" y="394" width="16" height="16" rx="3" fill="#E3E6E8" stroke="#8E959C" stroke-width="1.2"/>
<text x="56" y="408" font-family="DejaVu Sans, Arial, sans-serif" font-size="13.5" font-weight="normal" fill="#6B7278" text-anchor="start" letter-spacing="0">Relatórios</text>
<line x1="14" y1="436" x2="216" y2="436" stroke="#8E959C" stroke-width="1"/>
<text x="28" y="462" font-family="DejaVu Sans, Arial, sans-serif" font-size="13" font-weight="normal" fill="#6B7278" text-anchor="start" letter-spacing="0">Sair</text>
<text x="28" y="1008" font-family="DejaVu Sans, Arial, sans-serif" font-size="12" font-weight="normal" fill="#7E8790" text-anchor="start" letter-spacing="0">▸ Menu recolhível em telas pequenas</text>
<rect x="230" y="92" width="1210" height="78" rx="0" fill="#FFFFFF"/>
<line x1="230" y1="170" x2="1440" y2="170" stroke="#8E959C" stroke-width="1.5"/>
<text x="266" y="140" font-family="DejaVu Sans, Arial, sans-serif" font-size="19" font-weight="bold" fill="#33383D" text-anchor="start" letter-spacing="0">Minha barbearia</text>
<rect x="1210" y="112" width="130" height="38" rx="19" fill="#F4F5F6" stroke="#8E959C" stroke-width="1.2"/>
<text x="1275" y="136" font-family="DejaVu Sans, Arial, sans-serif" font-size="12.5" font-weight="normal" fill="#6B7278" text-anchor="middle" letter-spacing="0">13/08/2026</text>
<circle cx="1384" cy="131" r="19" fill="#E3E6E8" stroke="#8E959C" stroke-width="1.4"/>
<text x="1384" y="136" font-family="DejaVu Sans, Arial, sans-serif" font-size="12" font-weight="bold" fill="#6B7278" text-anchor="middle" letter-spacing="0">LR</text>
<rect x="266" y="200" width="130" height="44" rx="8" fill="#F4F5F6" stroke="#8E959C" stroke-width="1.4"/>
<text x="331" y="228" font-family="DejaVu Sans, Arial, sans-serif" font-size="13.5" font-weight="normal" fill="#6B7278" text-anchor="middle" letter-spacing="0">Dados</text>
<rect x="406" y="200" width="130" height="44" rx="8" fill="#FFFFFF" stroke="#8E959C" stroke-width="1.4"/>
<text x="471" y="228" font-family="DejaVu Sans, Arial, sans-serif" font-size="13.5" font-weight="bold" fill="#33383D" text-anchor="middle" letter-spacing="0">Serviços</text>
<rect x="546" y="200" width="130" height="44" rx="8" fill="#F4F5F6" stroke="#8E959C" stroke-width="1.4"/>
<text x="611" y="228" font-family="DejaVu Sans, Arial, sans-serif" font-size="13.5" font-weight="normal" fill="#6B7278" text-anchor="middle" letter-spacing="0">Barbeiros</text>
<line x1="266" y1="244" x2="1404" y2="244" stroke="#8E959C" stroke-width="1.5"/>
<text x="266" y="278" font-family="DejaVu Sans, Arial, sans-serif" font-size="16" font-weight="bold" fill="#33383D" text-anchor="start" letter-spacing="0">Serviços cadastrados</text>
<rect x="1254" y="254" width="150" height="40" rx="20" fill="#DCDFE2" stroke="#8E959C" stroke-width="1.6"/>
<text x="1329" y="279" font-family="DejaVu Sans, Arial, sans-serif" font-size="13.5" font-weight="bold" fill="#33383D" text-anchor="middle" letter-spacing="0">+ Novo serviço</text>
<rect x="266" y="302" width="269.5" height="210" rx="4" fill="#FFFFFF" stroke="#8E959C" stroke-width="1.5"/>
<rect x="280" y="316" width="241.5" height="96" rx="4" fill="#E3E6E8" stroke="#8E959C" stroke-width="1.5"/>
<path d="M280 316 L521.5 412 M521.5 316 L280 412" stroke="#8E959C" stroke-width="1.2" opacity="0.7"/>
<text x="400.75" y="368" font-family="DejaVu Sans, Arial, sans-serif" font-size="12" font-weight="normal" fill="#6B7278" text-anchor="middle" letter-spacing="0">Foto</text>
<rect x="280" y="428" width="161.7" height="11" rx="5.5" fill="#C6CBD0"/>
<rect x="280" y="450" width="94.325" height="9" rx="4.5" fill="#C6CBD0"/>
<rect x="280" y="472" width="60" height="26" rx="6" fill="#F4F5F6" stroke="#8E959C" stroke-width="1.2"/>
<rect x="346" y="472" width="60" height="26" rx="6" fill="#F4F5F6" stroke="#8E959C" stroke-width="1.2"/>
<rect x="555.5" y="302" width="269.5" height="210" rx="4" fill="#FFFFFF" stroke="#8E959C" stroke-width="1.5"/>
<rect x="569.5" y="316" width="241.5" height="96" rx="4" fill="#E3E6E8" stroke="#8E959C" stroke-width="1.5"/>
<path d="M569.5 316 L811 412 M811 316 L569.5 412" stroke="#8E959C" stroke-width="1.2" opacity="0.7"/>
<text x="690.25" y="368" font-family="DejaVu Sans, Arial, sans-serif" font-size="12" font-weight="normal" fill="#6B7278" text-anchor="middle" letter-spacing="0">Foto</text>
<rect x="569.5" y="428" width="161.7" height="11" rx="5.5" fill="#C6CBD0"/>
<rect x="569.5" y="450" width="94.325" height="9" rx="4.5" fill="#C6CBD0"/>
<rect x="569.5" y="472" width="60" height="26" rx="6" fill="#F4F5F6" stroke="#8E959C" stroke-width="1.2"/>
<rect x="635.5" y="472" width="60" height="26" rx="6" fill="#F4F5F6" stroke="#8E959C" stroke-width="1.2"/>
<rect x="845" y="302" width="269.5" height="210" rx="4" fill="#FFFFFF" stroke="#8E959C" stroke-width="1.5"/>
<rect x="859" y="316" width="241.5" height="96" rx="4" fill="#E3E6E8" stroke="#8E959C" stroke-width="1.5"/>
<path d="M859 316 L1100.5 412 M1100.5 316 L859 412" stroke="#8E959C" stroke-width="1.2" opacity="0.7"/>
<text x="979.75" y="368" font-family="DejaVu Sans, Arial, sans-serif" font-size="12" font-weight="normal" fill="#6B7278" text-anchor="middle" letter-spacing="0">Foto</text>
<rect x="859" y="428" width="161.7" height="11" rx="5.5" fill="#C6CBD0"/>
<rect x="859" y="450" width="94.325" height="9" rx="4.5" fill="#C6CBD0"/>
<rect x="859" y="472" width="60" height="26" rx="6" fill="#F4F5F6" stroke="#8E959C" stroke-width="1.2"/>
<rect x="925" y="472" width="60" height="26" rx="6" fill="#F4F5F6" stroke="#8E959C" stroke-width="1.2"/>
<rect x="1134.5" y="302" width="269.5" height="210" rx="4" fill="#FFFFFF" stroke="#8E959C" stroke-width="1.5"/>
<rect x="1148.5" y="316" width="241.5" height="96" rx="4" fill="#E3E6E8" stroke="#8E959C" stroke-width="1.5"/>
<path d="M1148.5 316 L1390 412 M1390 316 L1148.5 412" stroke="#8E959C" stroke-width="1.2" opacity="0.7"/>
<text x="1269.25" y="368" font-family="DejaVu Sans, Arial, sans-serif" font-size="12" font-weight="normal" fill="#6B7278" text-anchor="middle" letter-spacing="0">Foto</text>
<rect x="1148.5" y="428" width="161.7" height="11" rx="5.5" fill="#C6CBD0"/>
<rect x="1148.5" y="450" width="94.325" height="9" rx="4.5" fill="#C6CBD0"/>
<rect x="1148.5" y="472" width="60" height="26" rx="6" fill="#F4F5F6" stroke="#8E959C" stroke-width="1.2"/>
<rect x="1214.5" y="472" width="60" height="26" rx="6" fill="#F4F5F6" stroke="#8E959C" stroke-width="1.2"/>
<rect x="266" y="532" width="269.5" height="210" rx="4" fill="#FFFFFF" stroke="#8E959C" stroke-width="1.5"/>
<rect x="280" y="546" width="241.5" height="96" rx="4" fill="#E3E6E8" stroke="#8E959C" stroke-width="1.5"/>
<path d="M280 546 L521.5 642 M521.5 546 L280 642" stroke="#8E959C" stroke-width="1.2" opacity="0.7"/>
<text x="400.75" y="598" font-family="DejaVu Sans, Arial, sans-serif" font-size="12" font-weight="normal" fill="#6B7278" text-anchor="middle" letter-spacing="0">Foto</text>
<rect x="280" y="658" width="161.7" height="11" rx="5.5" fill="#C6CBD0"/>
<rect x="280" y="680" width="94.325" height="9" rx="4.5" fill="#C6CBD0"/>
<rect x="280" y="702" width="60" height="26" rx="6" fill="#F4F5F6" stroke="#8E959C" stroke-width="1.2"/>
<rect x="346" y="702" width="60" height="26" rx="6" fill="#F4F5F6" stroke="#8E959C" stroke-width="1.2"/>
<rect x="555.5" y="532" width="269.5" height="210" rx="4" fill="#FFFFFF" stroke="#8E959C" stroke-width="1.5"/>
<rect x="569.5" y="546" width="241.5" height="96" rx="4" fill="#E3E6E8" stroke="#8E959C" stroke-width="1.5"/>
<path d="M569.5 546 L811 642 M811 546 L569.5 642" stroke="#8E959C" stroke-width="1.2" opacity="0.7"/>
<text x="690.25" y="598" font-family="DejaVu Sans, Arial, sans-serif" font-size="12" font-weight="normal" fill="#6B7278" text-anchor="middle" letter-spacing="0">Foto</text>
<rect x="569.5" y="658" width="161.7" height="11" rx="5.5" fill="#C6CBD0"/>
<rect x="569.5" y="680" width="94.325" height="9" rx="4.5" fill="#C6CBD0"/>
<rect x="569.5" y="702" width="60" height="26" rx="6" fill="#F4F5F6" stroke="#8E959C" stroke-width="1.2"/>
<rect x="635.5" y="702" width="60" height="26" rx="6" fill="#F4F5F6" stroke="#8E959C" stroke-width="1.2"/>
<rect x="845" y="532" width="269.5" height="210" rx="4" fill="#FFFFFF" stroke="#8E959C" stroke-width="1.5"/>
<rect x="859" y="546" width="241.5" height="96" rx="4" fill="#E3E6E8" stroke="#8E959C" stroke-width="1.5"/>
<path d="M859 546 L1100.5 642 M1100.5 546 L859 642" stroke="#8E959C" stroke-width="1.2" opacity="0.7"/>
<text x="979.75" y="598" font-family="DejaVu Sans, Arial, sans-serif" font-size="12" font-weight="normal" fill="#6B7278" text-anchor="middle" letter-spacing="0">Foto</text>
<rect x="859" y="658" width="161.7" height="11" rx="5.5" fill="#C6CBD0"/>
<rect x="859" y="680" width="94.325" height="9" rx="4.5" fill="#C6CBD0"/>
<rect x="859" y="702" width="60" height="26" rx="6" fill="#F4F5F6" stroke="#8E959C" stroke-width="1.2"/>
<rect x="925" y="702" width="60" height="26" rx="6" fill="#F4F5F6" stroke="#8E959C" stroke-width="1.2"/>
<rect x="1134.5" y="532" width="269.5" height="210" rx="4" fill="#FFFFFF" stroke="#8E959C" stroke-width="1.5"/>
<rect x="1148.5" y="546" width="241.5" height="96" rx="4" fill="#E3E6E8" stroke="#8E959C" stroke-width="1.5"/>
<path d="M1148.5 546 L1390 642 M1390 546 L1148.5 642" stroke="#8E959C" stroke-width="1.2" opacity="0.7"/>
<text x="1269.25" y="598" font-family="DejaVu Sans, Arial, sans-serif" font-size="12" font-weight="normal" fill="#6B7278" text-anchor="middle" letter-spacing="0">Foto</text>
<rect x="1148.5" y="658" width="161.7" height="11" rx="5.5" fill="#C6CBD0"/>
<rect x="1148.5" y="680" width="94.325" height="9" rx="4.5" fill="#C6CBD0"/>
<rect x="1148.5" y="702" width="60" height="26" rx="6" fill="#F4F5F6" stroke="#8E959C" stroke-width="1.2"/>
<rect x="1214.5" y="702" width="60" height="26" rx="6" fill="#F4F5F6" stroke="#8E959C" stroke-width="1.2"/>
<text x="266" y="768" font-family="DejaVu Sans, Arial, sans-serif" font-size="12" font-weight="normal" fill="#7E8790" text-anchor="start" letter-spacing="0">▸ Cada cartão traz editar e excluir; formulário abre em janela modal</text>
</svg>